<?xml version="1.0" encoding="UTF-8"?>
<svg width="172px" height="240px" viewBox="0 0 172 240" version="1.1" xmlns="http://www.w3.org/2000/svg" xmlns:xlink="http://www.w3.org/1999/xlink">
    <!-- Generator: Sketch 48.2 (47327) - http://www.bohemiancoding.com/sketch -->
    <title>undraw_choose_80qg</title>
    <desc>Created with Sketch.</desc>
    <defs>
        <linearGradient x1="0.00312712552%" y1="50.0050553%" x2="99.99922%" y2="50.0050553%" id="linearGradient-1">
            <stop stop-color="#808080" stop-opacity="0.25" offset="0%"></stop>
            <stop stop-color="#808080" stop-opacity="0.12" offset="54%"></stop>
            <stop stop-color="#808080" stop-opacity="0.1" offset="100%"></stop>
        </linearGradient>
    </defs>
    <g id="Desktop-HD" stroke="none" stroke-width="1" fill="none" fill-rule="evenodd" transform="translate(-636.000000, -1108.000000)">
        <g id="Content" transform="translate(263.000000, 975.000000)">
            <g id="Group-5" transform="translate(8.000000, 0.000000)">
                <g id="undraw_choose_80qg" transform="translate(363.000000, 133.000000)">
                    <polygon id="Shape" fill="#F5F5F5" fill-rule="nonzero" points="161.453435 35.2580153 144.885496 30.2503817 143.865649 52.9068702 161.300763 58.1618321"></polygon>
                    <polygon id="Shape" fill="#F5F5F5" fill-rule="nonzero" points="44.8274809 0 44.8274809 23.0534351 143.865649 52.9068702 144.885496 30.2503817"></polygon>
                    <polygon id="Shape" fill="#000000" fill-rule="nonzero" opacity="0.1" points="161.453435 35.2580153 144.885496 30.2503817 143.865649 52.9068702 161.300763 58.1618321"></polygon>
                    <polygon id="Shape" fill="#3AD29F" fill-rule="nonzero" points="161.453435 78.6534351 144.885496 73.6458015 143.865649 96.3022901 161.300763 101.557252"></polygon>
                    <polygon id="Shape" fill="#3AD29F" fill-rule="nonzero" points="44.8274809 43.3954198 44.8274809 66.448855 143.865649 96.3022901 144.885496 73.6458015"></polygon>
                    <polygon id="Shape" fill="#000000" fill-rule="nonzero" opacity="0.1" points="161.453435 78.6534351 144.885496 73.6458015 143.865649 96.3022901 161.300763 101.557252"></polygon>
                    <polyline id="Shape" stroke="#FFFFFF" stroke-width="7" stroke-linecap="round" points="149.096183 86.6412214 151.807634 90.7083969 157.233588 83.9267176"></polyline>
                    <g id="Group" opacity="0.4" transform="translate(149.007634, 39.083969)" stroke="#FFFFFF" stroke-linecap="round" stroke-width="7">
                        <path d="M0.238167939,0.0916030534 L5.66412214,9.58473282" id="Shape"></path>
                        <path d="M7.01984733,1.44732824 L0.238167939,8.22900763" id="Shape"></path>
                    </g>
                    <polygon id="Shape" fill="#F5F5F5" fill-rule="nonzero" points="161.453435 119.337405 144.885496 114.329771 143.865649 136.98626 161.300763 142.241221"></polygon>
                    <polygon id="Shape" fill="#F5F5F5" fill-rule="nonzero" points="44.8274809 84.0793893 44.8274809 107.132824 143.865649 136.98626 144.885496 114.329771"></polygon>
                    <polygon id="Shape" fill="#000000" fill-rule="nonzero" opacity="0.1" points="161.453435 119.337405 144.885496 114.329771 143.865649 136.98626 161.300763 142.241221"></polygon>
                    <g id="Group" opacity="0.4" transform="translate(149.007634, 123.053435)" stroke="#FFFFFF" stroke-linecap="round" stroke-width="7">
                        <path d="M0.238167939,0.201526718 L5.66412214,9.69465649" id="Shape"></path>
                        <path d="M7.01984733,1.55725191 L0.238167939,8.3389313" id="Shape"></path>
                    </g>
                    <ellipse id="Oval" fill="#000000" fill-rule="nonzero" opacity="0.3" cx="113.309924" cy="74.4366412" rx="3.38931298" ry="6.78167939"></ellipse>
                    <ellipse id="Oval" fill="#2CA86A" fill-rule="nonzero" opacity="0.1" cx="113.309924" cy="74.4366412" rx="28.4793893" ry="56.9557252"></ellipse>
                    <ellipse id="Oval" fill="#FFFFFF" fill-rule="nonzero" opacity="0.1" cx="113.309924" cy="74.4366412" rx="15.5938931" ry="31.1908397"></ellipse>
                    <g id="Group" opacity="0.5" transform="translate(18.931298, 36.030534)" fill="url(#linearGradient-1)" fill-rule="nonzero">
                        <path d="M97.5389313,39.3251908 C96.1465649,35.1480916 87.8687023,40.7938931 87.8687023,40.7938931 L87.1877863,41.7099237 L72.4732824,61.6 L36.421374,41.4473282 L36.421374,32.4366412 C39.8527325,32.0567462 42.9749059,30.2767296 45.0497211,27.5174393 C47.1245363,24.7581489 47.9678046,21.264537 47.3801527,17.8625954 C49.1938931,17.1633588 50.6717557,15.6549618 52.0335878,14.1984733 C53.2885496,12.8641221 54.6320611,11.2458015 54.5038168,9.46870229 C54.5243333,9.18482868 54.5079111,8.89949269 54.4549618,8.61984733 C54.1679389,7.12061069 52.8122137,6.02748092 51.3770992,5.50534351 C49.9419847,4.98320611 48.3908397,4.89465649 46.8916031,4.58931298 C43.319084,3.89007634 40.0916031,2.02442748 36.6076336,0.967938931 C35.0251908,0.491883116 33.3967635,0.184825796 31.7496183,0.0519083969 C30.5679389,-0.0458015267 29.3374046,-0.0458015267 28.2564885,0.439694656 C27.0717557,0.974045802 26.2137405,2.01832061 25.2610687,2.90687023 C24.1094826,3.97903203 22.7809553,4.84371112 21.3343511,5.46259542 C19.1755725,6.37862595 16.7541985,6.75419847 14.8091603,8.04885496 C14.2691045,8.3741735 13.8171959,8.82713064 13.4931298,9.36793893 C13.2089163,9.94969567 13.0875722,10.5975679 13.1419847,11.2427481 C13.1332989,11.8113654 13.176223,12.379598 13.270229,12.940458 C13.6122137,15.3343511 14.0061069,17.7862595 15.2183206,19.8778626 C16.2076336,21.5877863 17.6885496,22.9496183 19.1419847,24.2870229 L22.4122137,27.2854962 C23.0748092,27.8961832 23.8076336,28.6473282 24.6625954,28.9496183 C24.6076336,28.5526718 24.8335878,28.1343511 25.1694656,27.7282443 L24.1099237,35.1358779 C22.1353294,34.523275 20.082552,34.1993147 18.0152672,34.1740458 C15.2305344,34.140458 12.4122137,34.6442748 11.1938931,36.540458 C11.1226314,36.6555901 11.06036,36.7760495 11.0076336,36.9007634 C7.16946565,41.4564885 -1.62748092,56.210687 3.54503817,92.0458015 C3.10229008,96.4305344 2.83664122,99.2061069 2.83664122,99.2061069 L2.86717557,99.6458015 L2.83664122,99.978626 L2.89770992,100.027481 L5.77709924,139.59084 L0.207633588,178.583206 L1.44427481,178.583206 L1.44427481,182.916031 L0.0519083969,182.916031 L0.0519083969,189.877863 C0.0519083969,189.877863 19.3923664,188.641221 22.3419847,184.308397 C24.7847328,180.714504 12.6259542,182.125191 8.41526718,182.71145 L8.41526718,180.045802 L8.49160305,180.045802 L8.49160305,178.577099 L9.96030534,178.577099 L15.529771,152.119084 C21.2549618,142.222901 18.3206107,117.450382 18.3206107,117.450382 L25.2824427,121.627481 L30.8396947,150.732824 L26.6687023,193.90229 L27.9053435,193.90229 L27.9053435,196.919084 L26.280916,196.919084 L26.280916,203.880916 C26.280916,203.880916 45.621374,202.644275 48.5709924,198.31145 C51.0137405,194.717557 38.8610687,196.128244 34.6503817,196.714504 L34.1832061,193.90229 L35.0351145,193.90229 L40.610687,154.909924 C43.3587786,144.345038 39.6122137,113.346565 39.1175573,109.377099 L46.0122137,63.7709924 L45.9145038,63.6396947 L46.0122137,62.9954198 L73.8625954,72.7480916 C73.8625954,72.7480916 76.6473282,75.5328244 79.5114504,67.2519084 C82.1862595,59.5145038 89.5236641,49.1419847 90.4732824,47.8198473 L90.5740458,47.6793893 C90.5740458,47.6793893 98.9312977,43.5022901 97.5389313,39.3251908 Z" id="Shape"></path>
                    </g>
                    <polygon id="Shape" fill="#FDA57D" fill-rule="nonzero" points="21.621374 211.251908 21.621374 218.030534 28.4030534 218.030534 28.4030534 208.540458"></polygon>
                    <polygon id="Shape" fill="#FDA57D" fill-rule="nonzero" points="47.389313 224.812214 47.389313 232.949618 54.1679389 231.593893 52.8122137 223.456489"></polygon>
                    <path d="M32.5465649,73.0015267 C32.5465649,73.0015267 16.3633588,85.129771 24.3358779,132.59542 L32.5465649,73.0015267 Z" id="Shape" fill="#F55F44" fill-rule="nonzero"></path>
                    <path d="M32.5465649,73.0015267 C32.5465649,73.0015267 16.3633588,85.129771 24.3358779,132.59542 L32.5465649,73.0015267 Z" id="Shape" fill="#000000" fill-rule="nonzero" opacity="0.05"></path>
                    <polygon id="Shape" fill="#000000" fill-rule="nonzero" opacity="0.05" points="53.5664122 228.955725 52.8885496 224.88855 47.4625954 226.244275 47.4625954 228.955725"></polygon>
                    <polygon id="Shape" fill="#000000" fill-rule="nonzero" opacity="0.05" points="21.6977099 214.039695 28.4793893 214.039695 28.4793893 209.969466 21.6977099 212.683969"></polygon>
                    <polygon id="Shape" fill="#FDA57D" fill-rule="nonzero" points="44.8274809 64.9435115 43.4717557 74.4366412 55.6763359 81.2152672 55.6763359 67.6549618"></polygon>
                    <path d="M20.4183206,212.607634 L25.8442748,174.635115 L22.9801527,135.30687 L58.2381679,144.8 C58.2381679,144.8 62.5954198,178.552672 59.7435115,189.551145 L54.3206107,227.523664 L46.1832061,227.523664 L50.2503817,185.483969 L44.8274809,157.145038 L38.0458015,153.087023 C38.0458015,153.087023 40.9099237,177.20916 35.3343511,186.839695 L29.9236641,212.607634 L20.4183206,212.607634 Z" id="Shape" fill="#2CA86A" fill-rule="nonzero"></path>
                    <path d="M115.193893,76.9954198 C113.838168,72.9282443 105.777099,78.4274809 105.777099,78.4274809 L105.114504,79.3251908 L108.314504,85.270229 L108.415267,85.1328244 C108.415267,85.1328244 116.549618,81.0625954 115.193893,76.9954198 Z" id="Shape" fill="#FDA57D" fill-rule="nonzero"></path>
                    <path d="M44.6748092,73.6793893 C44.6748092,73.6793893 33.8259542,70.8152672 31.1145038,75.0351145 C28.4030534,79.2549618 22.9770992,136.076336 22.9770992,136.076336 C22.9770992,136.076336 39.0992366,149.636641 58.2351145,145.569466 L65.0167939,100.818321 L44.6748092,73.6793893 Z" id="Shape" fill="#000000" fill-rule="nonzero" opacity="0.05"></path>
                    <path d="M90.7847328,98.6931298 L47.9206107,74.7419847 C44.8141071,72.99358 41.3200277,72.0489505 37.7557252,71.9938931 C35.0442748,71.9603053 32.2992366,72.4519084 31.1145038,74.2961832 C28.4030534,78.5160305 22.9770992,135.322137 22.9770992,135.322137 C22.9770992,135.322137 39.0992366,148.882443 58.2351145,144.815267 L65.0167939,100.045802 L92.140458,109.538931 C92.140458,109.538931 94.8519084,112.250382 97.6366412,104.189313 C100.241221,96.6534351 107.38626,86.5557252 108.323664,85.2580153 L105.123664,79.3129771 L90.7847328,98.6931298 Z" id="Shape" fill="#F55F44" fill-rule="nonzero"></path>
                    <path d="M44.6442748,67.0473282 C46.9549468,69.998798 50.4958924,71.7219681 54.2442748,71.719084 C54.6972425,71.7185673 55.1498374,71.6930834 55.6,71.6427481 L55.6,69.0076336 L44.751145,66.2961832 L44.6442748,67.0473282 Z" id="Shape" fill="#000000" fill-rule="nonzero" opacity="0.05"></path>
                    <circle id="Oval" fill="#FDA57D" fill-rule="nonzero" cx="54.3206107" cy="58.1618321" r="12.2045802"></circle>
                    <path d="M20.2656489,216.824427 L20.2656489,223.606107 C20.2656489,223.606107 39.0992366,222.4 41.9633588,218.180153 C44.8274809,213.960305 27.0473282,216.824427 27.0473282,216.824427 L20.2656489,216.824427 Z" id="Shape" fill="#333333" fill-rule="nonzero"></path>
                    <path d="M45.8015267,230.461069 L45.8015267,237.242748 C45.8015267,237.242748 64.6351145,236.036641 67.4992366,231.816794 C70.3633588,227.596947 52.5832061,230.461069 52.5832061,230.461069 L45.8015267,230.461069 Z" id="Shape" fill="#333333" fill-rule="nonzero"></path>
                    <path d="M46.5801527,63.7557252 L51.3496183,56.9312977 C52.0549618,55.9206107 52.778626,54.8916031 53.7679389,54.1526718 C54.7572519,53.4137405 56.070229,53.0015267 57.2427481,53.3801527 C57.951145,53.6091603 58.540458,54.0977099 59.1419847,54.5343511 C60.9221374,55.8290076 63.1114504,56.7908397 65.2885496,56.4 C67.5572519,55.9908397 69.3007634,54.2198473 70.8793893,52.540458 C72.189313,51.1480916 73.5969466,49.4381679 73.2366412,47.5603053 C72.9557252,46.1007634 71.6366412,45.0381679 70.2381679,44.5282443 C68.8396947,44.0183206 67.3312977,43.9358779 65.8717557,43.648855 C62.3938931,42.9679389 59.248855,41.151145 55.8564885,40.1221374 C54.3157168,39.6502707 52.7292291,39.3432085 51.1236641,39.2061069 C49.9725191,39.1114504 48.7725191,39.1114504 47.7221374,39.5847328 C46.5679389,40.1038168 45.7312977,41.1114504 44.8061069,41.9877863 C43.6847223,43.030605 42.3913409,43.8715095 40.9832061,44.4732824 C38.8824427,45.3709924 36.5343511,45.7312977 34.6290076,46.9923664 C34.1037781,47.3097174 33.6644647,47.7511278 33.3496183,48.2778626 C32.8610687,49.1938931 32.9862595,50.2870229 33.1328244,51.3068702 C33.4656489,53.6366412 33.8473282,56.0244275 35.0290076,58.0610687 C35.9938931,59.7251908 37.4320611,61.0534351 38.8519084,62.3541985 L42.0366412,65.2763359 C42.680916,65.8687023 43.3954198,66.6015267 44.2290076,66.8977099 C44.0793893,65.8473282 45.978626,64.6259542 46.5801527,63.7557252 Z" id="Shape" fill="#000000" fill-rule="nonzero" opacity="0.05"></path>
                    <path d="M46.5801527,63.3038168 L51.3496183,56.4793893 C52.0549618,55.4687023 52.778626,54.4396947 53.7679389,53.7007634 C54.7572519,52.9618321 56.070229,52.5496183 57.2427481,52.9282443 C57.951145,53.1572519 58.540458,53.6458015 59.1419847,54.0824427 C60.9221374,55.3770992 63.1114504,56.3389313 65.2885496,55.9480916 C67.5572519,55.5389313 69.3007634,53.7679389 70.8793893,52.0885496 C72.189313,50.6961832 73.5969466,48.9862595 73.2366412,47.1083969 C72.9557252,45.648855 71.6366412,44.5862595 70.2381679,44.0763359 C68.8396947,43.5664122 67.3312977,43.4839695 65.8717557,43.1969466 C62.3938931,42.5160305 59.248855,40.6992366 55.8564885,39.670229 C54.3157168,39.1983623 52.7292291,38.8913001 51.1236641,38.7541985 C49.9725191,38.659542 48.7725191,38.659542 47.7221374,39.1328244 C46.5679389,39.6519084 45.7312977,40.659542 44.8061069,41.5358779 C43.6849588,42.5797839 42.3915632,43.4217307 40.9832061,44.0244275 C38.8824427,44.9221374 36.5343511,45.2824427 34.6290076,46.5435115 C34.1037781,46.8608625 33.6644647,47.3022729 33.3496183,47.8290076 C32.8610687,48.7450382 32.9862595,49.8381679 33.1328244,50.8580153 C33.4656489,53.1877863 33.8473282,55.5755725 35.0290076,57.6122137 C35.9938931,59.2763359 37.4320611,60.6045802 38.8519084,61.9053435 L42.0366412,64.8274809 C42.680916,65.4198473 43.3954198,66.1526718 44.2290076,66.448855 C44.0793893,65.3984733 45.978626,64.1618321 46.5801527,63.3038168 Z" id="Shape" fill="#333333" fill-rule="nonzero"></path>
                    <g id="Group" opacity="0.5" transform="translate(0.000000, 33.587786)"></g>
                    <g id="Group" opacity="0.5" transform="translate(160.305344, 158.473282)"></g>
                    <g id="Group" opacity="0.5" transform="translate(149.007634, 104.122137)"></g>
                    <g id="Group" opacity="0.5" transform="translate(129.770992, 156.030534)"></g>
                    <g id="Group" opacity="0.5" transform="translate(116.030534, 189.007634)"></g>
                    <g id="Group" opacity="0.5" transform="translate(19.236641, 73.282443)"></g>
                    <path d="M27.3770992,33.4198473 C27.1203414,33.3067599 26.9890527,33.0192375 27.0717557,32.751145 C27.0741033,32.7308565 27.0741033,32.7103649 27.0717557,32.6900763 C27.0777544,32.5687352 27.0042271,32.457566 26.8902165,32.4155989 C26.7762059,32.3736318 26.64815,32.4105986 26.5740458,32.5068702 C26.5617279,32.5239175 26.551478,32.5423673 26.5435115,32.5618321 C26.430424,32.8185899 26.1429016,32.9498786 25.8748092,32.8671756 L25.8137405,32.8671756 C25.6923993,32.8611769 25.5812301,32.9347042 25.539263,33.0487148 C25.4972959,33.1627254 25.5342628,33.2907813 25.6305344,33.3648855 C25.6475816,33.3772034 25.6660314,33.3874533 25.6854962,33.3954198 C25.942254,33.5085073 26.0735428,33.7960297 25.9908397,34.0641221 C25.9884921,34.0844107 25.9884921,34.1049023 25.9908397,34.1251908 C25.9848411,34.246532 26.0583683,34.3577012 26.1723789,34.3996683 C26.2863895,34.4416354 26.4144454,34.4046685 26.4885496,34.3083969 C26.5008676,34.2913497 26.5111175,34.2728999 26.519084,34.2534351 C26.6321714,33.9966773 26.9196938,33.8653885 27.1877863,33.9480916 L27.248855,33.9480916 C27.3701961,33.9540902 27.4813653,33.880563 27.5233324,33.7665524 C27.5652995,33.6525418 27.5283327,33.5244859 27.4320611,33.4503817 C27.4150138,33.4380637 27.396564,33.4278138 27.3770992,33.4198473 Z" id="Shape" fill="#4D8AF0" fill-rule="nonzero" opacity="0.5"></path>
                    <path d="M129.114504,10.7664122 C128.857746,10.6533248 128.726457,10.3658024 128.80916,10.0977099 C128.811508,10.0774214 128.811508,10.0569298 128.80916,10.0366412 C128.815159,9.9153001 128.741632,9.80413084 128.627621,9.76216376 C128.51361,9.72019667 128.385555,9.75716353 128.31145,9.85343511 C128.299132,9.8704824 128.288883,9.8889322 128.280916,9.90839695 C128.167829,10.1651548 127.880306,10.2964435 127.612214,10.2137405 L127.551145,10.2137405 C127.429804,10.2077418 127.318635,10.2812691 127.276668,10.3952797 C127.2347,10.5092903 127.271667,10.6373462 127.367939,10.7114504 C127.384986,10.7237683 127.403436,10.7340182 127.422901,10.7419847 C127.679659,10.8550722 127.810947,11.1425946 127.728244,11.410687 C127.725897,11.4309756 127.725897,11.4514672 127.728244,11.4717557 C127.722246,11.5930968 127.795773,11.7042661 127.909784,11.7462332 C128.023794,11.7882003 128.15185,11.7512334 128.225954,11.6549618 C128.238272,11.6379145 128.248522,11.6194647 128.256489,11.6 C128.369576,11.3432422 128.657098,11.2119534 128.925191,11.2946565 L128.98626,11.2946565 C129.107601,11.3006551 129.21877,11.2271278 129.260737,11.1131173 C129.302704,10.9991067 129.265737,10.8710508 129.169466,10.7969466 C129.152418,10.7846286 129.133969,10.7743787 129.114504,10.7664122 Z" id="Shape" fill="#4D8AF0" fill-rule="nonzero" opacity="0.5"></path>
                    <path d="M4.0519084,91.3801527 C3.79515058,91.2670652 3.66386182,90.9795428 3.74656489,90.7114504 C3.74891246,90.6911618 3.74891246,90.6706702 3.74656489,90.6503817 C3.75256353,90.5290406 3.67903625,90.4178713 3.56502566,90.3759042 C3.45101507,90.3339371 3.32295916,90.370904 3.24885496,90.4671756 C3.23653702,90.4842229 3.22628713,90.5026727 3.21832061,90.5221374 C3.10523315,90.7788952 2.81771075,90.910184 2.54961832,90.8274809 L2.48854962,90.8274809 C2.3672085,90.8214823 2.25603924,90.8950096 2.21407215,91.0090201 C2.17210507,91.1230307 2.20907192,91.2510866 2.30534351,91.3251908 C2.3223908,91.3375088 2.3408406,91.3477587 2.36030534,91.3557252 C2.61706316,91.4688127 2.74835192,91.756335 2.66564885,92.0244275 C2.66330128,92.044716 2.66330128,92.0652076 2.66564885,92.0854962 C2.65965021,92.2068373 2.73317749,92.3180066 2.84718808,92.3599736 C2.96119867,92.4019407 3.08925458,92.3649739 3.16335878,92.2687023 C3.17567673,92.251655 3.18592662,92.2332052 3.19389313,92.2137405 C3.30698059,91.9569826 3.59450299,91.8256939 3.86259542,91.9083969 L3.92366412,91.9083969 C4.04500524,91.9143956 4.1561745,91.8408683 4.19814159,91.7268577 C4.24010867,91.6128471 4.20314182,91.4847912 4.10687023,91.410687 C4.08982295,91.3983691 4.07137314,91.3881192 4.0519084,91.3801527 Z" id="Shape" fill="#4D8AF0" fill-rule="nonzero" opacity="0.5"></path>
                    <path d="M8.11908397,148.335878 C7.86232616,148.22279 7.73103739,147.935268 7.81374046,147.667176 C7.81608803,147.646887 7.81608803,147.626395 7.81374046,147.606107 C7.8197391,147.484766 7.74621182,147.373596 7.63220123,147.331629 C7.51819064,147.289662 7.39013473,147.326629 7.31603053,147.422901 C7.30371259,147.439948 7.2934627,147.458398 7.28549618,147.477863 C7.17240872,147.73462 6.88488632,147.865909 6.61679389,147.783206 L6.55572519,147.783206 C6.43438407,147.777207 6.32321481,147.850735 6.28124773,147.964745 C6.23928064,148.078756 6.2762475,148.206812 6.37251908,148.280916 C6.38956637,148.293234 6.40801617,148.303484 6.42748092,148.31145 C6.68423873,148.424538 6.8155275,148.71206 6.73282443,148.980153 C6.73047685,149.000441 6.73047685,149.020933 6.73282443,149.041221 C6.72682579,149.162562 6.80035307,149.273732 6.91436365,149.315699 C7.02837424,149.357666 7.15643016,149.320699 7.23053435,149.224427 C7.2428523,149.20738 7.25310219,149.18893 7.2610687,149.169466 C7.37415616,148.912708 7.66167856,148.781419 7.92977099,148.864122 L7.99083969,148.864122 C8.11218081,148.870121 8.22335007,148.796593 8.26531716,148.682583 C8.30728425,148.568572 8.27031739,148.440516 8.1740458,148.366412 C8.15699852,148.354094 8.13854872,148.343844 8.11908397,148.335878 Z" id="Shape" fill="#4D8AF0" fill-rule="nonzero" opacity="0.5"></path>
                    <circle id="Oval" fill="#F55F44" fill-rule="nonzero" opacity="0.5" cx="75.9419847" cy="41.059542" r="1"></circle>
                    <circle id="Oval" fill="#4D8AF0" fill-rule="nonzero" opacity="0.5" cx="100.351145" cy="159.041221" r="1"></circle>
                    <circle id="Oval" fill="#4D8AF0" fill-rule="nonzero" opacity="0.5" cx="155.951145" cy="65.4687023" r="1"></circle>
                    <circle id="Oval" fill="#47E6B1" fill-rule="nonzero" opacity="0.5" cx="172.225954" cy="106.152672" r="1"></circle>
                    <circle id="Oval" fill="#F55F44" fill-rule="nonzero" opacity="0.5" cx="111.651908" cy="3.54198473" r="1"></circle>
                </g>
            </g>
        </g>
    </g>
</svg>