<?xml version="1.0" encoding="UTF-8"?>
<svg width="378px" height="240px" viewBox="0 0 378 240" version="1.1" xmlns="http://www.w3.org/2000/svg" xmlns:xlink="http://www.w3.org/1999/xlink">
    <!-- Generator: Sketch 48.2 (47327) - http://www.bohemiancoding.com/sketch -->
    <title>undraw_queue_qt30</title>
    <desc>Created with Sketch.</desc>
    <defs>
        <linearGradient x1="49.9932167%" y1="100%" x2="49.9932167%" y2="0.00754976202%" id="linearGradient-1">
            <stop stop-color="#808080" stop-opacity="0.25" offset="0%"></stop>
            <stop stop-color="#808080" stop-opacity="0.12" offset="54%"></stop>
            <stop stop-color="#808080" stop-opacity="0.1" offset="100%"></stop>
        </linearGradient>
        <linearGradient x1="88974%" y1="68971%" x2="88974%" y2="19013%" id="linearGradient-2">
            <stop stop-color="#808080" stop-opacity="0.25" offset="0%"></stop>
            <stop stop-color="#808080" stop-opacity="0.12" offset="54%"></stop>
            <stop stop-color="#808080" stop-opacity="0.1" offset="100%"></stop>
        </linearGradient>
        <linearGradient x1="35133%" y1="70635%" x2="35133%" y2="19891%" id="linearGradient-3">
            <stop stop-color="#808080" stop-opacity="0.25" offset="0%"></stop>
            <stop stop-color="#808080" stop-opacity="0.12" offset="54%"></stop>
            <stop stop-color="#808080" stop-opacity="0.1" offset="100%"></stop>
        </linearGradient>
        <linearGradient x1="71473%" y1="73700%" x2="71473%" y2="16300%" id="linearGradient-4">
            <stop stop-color="#808080" stop-opacity="0.25" offset="0%"></stop>
            <stop stop-color="#808080" stop-opacity="0.12" offset="54%"></stop>
            <stop stop-color="#808080" stop-opacity="0.1" offset="100%"></stop>
        </linearGradient>
        <linearGradient x1="54225%" y1="70125%" x2="54225%" y2="21646%" id="linearGradient-5">
            <stop stop-color="#808080" stop-opacity="0.25" offset="0%"></stop>
            <stop stop-color="#808080" stop-opacity="0.12" offset="54%"></stop>
            <stop stop-color="#808080" stop-opacity="0.1" offset="100%"></stop>
        </linearGradient>
        <linearGradient x1="59632%" y1="54336%" x2="59632%" y2="40170%" id="linearGradient-6">
            <stop stop-color="#808080" stop-opacity="0.25" offset="0%"></stop>
            <stop stop-color="#808080" stop-opacity="0.12" offset="54%"></stop>
            <stop stop-color="#808080" stop-opacity="0.1" offset="100%"></stop>
        </linearGradient>
        <linearGradient x1="18398%" y1="69034%" x2="18398%" y2="36235%" id="linearGradient-7">
            <stop stop-color="#808080" stop-opacity="0.25" offset="0%"></stop>
            <stop stop-color="#808080" stop-opacity="0.12" offset="54%"></stop>
            <stop stop-color="#808080" stop-opacity="0.1" offset="100%"></stop>
        </linearGradient>
    </defs>
    <g id="Desktop-HD" stroke="none" stroke-width="1" fill="none" fill-rule="evenodd" transform="translate(-531.000000, -2315.000000)">
        <g id="Content" transform="translate(263.000000, 975.000000)" fill-rule="nonzero">
            <g id="Group-7" transform="translate(7.000000, 1227.000000)">
                <g id="undraw_queue_qt30" transform="translate(261.000000, 113.000000)">
                    <g id="Group" opacity="0.5" transform="translate(347.063939, 83.140665)" fill="url(#linearGradient-1)">
                        <path d="M21.747215,121.627323 L19.7363711,121.627323 L19.7363711,16.2064058 C23.118527,14.2574267 24.7674692,10.2840904 23.7566832,6.51895188 C22.7458972,2.75381336 19.3274219,0.135708064 15.4220447,0.135708064 C11.5166674,0.135708064 8.09819208,2.75381336 7.08740607,6.51895188 C6.07662006,10.2840904 7.72556234,14.2574267 11.1077183,16.2064058 L11.1077183,121.627323 L9.09687427,121.627323 C4.08204475,121.627323 0.0167221953,125.684923 0.0167221953,130.690226 L0.0167221953,137.00338 L30.8315477,137.00338 L30.8315477,130.690226 C30.8315479,128.285872 29.8743179,125.980054 28.1705548,124.28031 C26.4667917,122.580566 24.1561453,121.626216 21.747215,121.627323 Z" id="Shape"></path>
                    </g>
                    <g id="Group" opacity="0.5" transform="translate(270.690537, 11.601023)" fill="url(#linearGradient-2)">
                        <path d="M72.1516113,201.300951 C69.0184143,199.454997 67.3658312,193.282324 66.8708951,191.106436 L63.1337084,143.032261 C63.1337084,143.032261 60.3276726,127.120298 49.6697698,104.455147 C49.5397442,90.9613013 49.0406138,48.2913465 47.8284399,43.7015177 L40.7651151,35.1524919 C41.0934338,34.4928445 41.4647292,33.8552838 41.876624,33.2438916 C42.0024552,33.2104806 42.1324808,33.181246 42.258312,33.1436587 C42.4135038,32.9390167 42.5770844,32.7260219 42.7448593,32.5547908 C46.0909286,31.3876727 48.7245347,28.7720474 49.9052094,25.4433274 C51.0858842,22.1146074 50.6861189,18.4322829 48.818312,15.4316808 C50.558977,14.1578885 48.3401535,13.619137 48.3401535,13.619137 C46.98328,7.62922932 41.1894314,3.71685028 35.0985166,4.67753248 C34.3224904,1.9594813 31.8294406,0.0840810957 28.991509,0.0835273657 L28.6307928,0.0835273657 C31.268443,0.227982521 33.5412407,1.98221361 34.339335,4.48959591 C33.4652371,2.99765451 32.0165719,1.92638148 30.3295141,1.52437442 C29.1891496,0.573207422 27.7485756,0.0526864577 26.2609719,0.0542927877 L25.9002558,0.0542927877 C27.1782673,0.126706346 28.4040248,0.584028141 29.4151407,1.36567243 C29.2305882,1.36567243 29.0460358,1.33643785 28.8614834,1.33643785 C25.9921285,1.33110627 23.4761545,3.24352553 22.7249159,6.0009098 C21.9736772,8.75829408 23.1740958,11.6745559 25.6527877,13.1137964 C24.9508625,15.708188 25.1716626,18.4644569 26.2777494,20.9152524 C26.0386701,24.256347 26.768491,28.5120663 31.260665,30.6670723 L30.497289,32.3877361 C29.5787212,32.4336761 22.1085422,33.3357717 17.3017903,50.2166523 C15.2339642,54.4473134 13.6736573,61.292381 13.7785166,72.3514042 C13.5771867,75.1829819 13.4261893,78.1983198 13.3590793,81.4600634 L9.89452685,95.6931265 L9.94485934,95.7766539 C9.94485934,95.8434758 9.94485934,95.9061213 9.94485934,95.9729432 L9.90710997,96.1232925 L9.93227621,96.1608798 C9.09340153,107.524778 9.51283887,119.097494 11.8197442,130.252574 C13.1283887,136.567243 14.1392327,142.902794 13.4974936,145.141327 C12.1133504,150.152969 7.2059335,168.420404 7.91478261,174.033443 L6.2915601,183.852085 L6.40061381,183.889672 L0.281023018,195.462389 C0.281023018,195.462389 4.05595908,198.903716 5.54496164,198.978891 C7.03396419,199.054065 8.74946292,201.576592 8.74946292,201.576592 C8.74946292,201.576592 17.5366752,208.338132 20.5230691,206.245771 C23.5094629,204.153411 19.398977,201.651766 16.5887468,198.239673 C14.2860358,195.428978 14.8732481,189.051663 15.1626598,186.85907 L28.3036317,140.451265 C28.3036317,140.451265 29.6080818,133.230325 29.801023,120.897509 C30.806594,121.702237 31.9526719,122.315291 33.181688,122.705877 C33.5914819,122.832528 34.0302061,122.832528 34.44,122.705877 L35.2788747,125.729567 C35.2788747,125.729567 50.4373402,147.292157 50.8693606,152.458324 C51.3013811,157.624492 53.0336573,176.464089 55.6341688,181.496613 L57.5090537,191.273491 L57.6223018,191.273491 L55.8858312,204.220233 C55.8858312,204.220233 60.6254731,206.153891 62.0431714,205.715373 C63.4608696,205.276854 65.9523274,207.055987 65.9523274,207.055987 C65.9523274,207.055987 76.5431202,210.397082 78.619335,207.394273 C80.6955499,204.391464 75.9768798,203.539485 72.1516113,201.300951 Z" id="Shape"></path>
                    </g>
                    <path d="M315.361344,111.144945 L319.028133,119.877238 C319.028133,119.877238 318.620712,62.6247854 317.268074,57.3570255 L308.471854,46.4040921 L305.493606,54.4434784 L312.26087,63.0380249 C312.26087,63.0380249 316.457306,75.7900111 315.776913,88.2665042 C315.09652,100.742997 315.361344,111.144945 315.361344,111.144945 Z" id="Shape" fill="#3AD29F"></path>
                    <path d="M315.361344,111.144945 L319.028133,119.877238 C319.028133,119.877238 318.620712,62.6247854 317.268074,57.3570255 L308.471854,46.4040921 L305.493606,54.4434784 L312.26087,63.0380249 C312.26087,63.0380249 316.457306,75.7900111 315.776913,88.2665042 C315.09652,100.742997 315.361344,111.144945 315.361344,111.144945 Z" id="Shape" fill="#381E1D"></path>
                    <path d="M315.36355,111.144945 L319.028133,119.877238 C319.028133,119.877238 318.620957,62.6247854 317.269133,57.3570255 L308.470062,46.4040921 L305.493606,54.4434784 L312.256798,63.0380249 C312.256798,63.0380249 316.45071,75.7900111 315.770726,88.2665042 C315.090742,100.742997 315.36355,111.144945 315.36355,111.144945 Z" id="Shape" fill="#333333"></path>
                    <path d="M280.928611,106.951127 C280.07015,118.120549 280.439822,129.511188 282.66607,140.488609 C283.89831,146.578365 284.85535,152.684816 284.272089,154.846909 C282.961807,159.676139 278.336799,177.294274 278.993993,182.707853 L277.457801,192.178488 L285.77953,195.283887 L298.25391,150.322375 C298.25391,150.322375 301.470057,132.178326 298.286769,104.409207 L280.924503,106.955301 L280.928611,106.951127 Z" id="Shape" fill="#2CA86A"></path>
                    <path d="M277.875998,192.383632 L271.657289,204.023976 C271.657289,204.023976 275.259994,207.283601 276.67786,207.357403 C278.095726,207.431206 279.733319,209.817497 279.733319,209.817497 C279.733319,209.817497 288.111993,216.221942 290.964307,214.237466 C293.816622,212.25299 289.894689,209.903601 287.233082,206.652177 C284.571474,203.400752 285.98934,195.130737 285.98934,195.130737 L277.875998,192.383632 Z" id="Shape" fill="#381E1D"></path>
                    <path d="M305.708313,136.750696 C305.708313,136.750696 320.427379,157.59685 320.849492,162.597081 C321.271604,167.597313 322.960055,185.803177 325.49273,190.669511 L327.316257,200.117647 L336.429668,200.117647 L332.786836,153.425109 C332.786836,153.425109 329.519684,135.223429 316.780326,110.209719 L300.659847,118.963262 L305.708313,136.750696 Z" id="Shape" fill="#2CA86A"></path>
                    <path d="M316.952585,113.578007 C316.952585,114.700126 304.526854,113.578007 304.526854,113.578007 L304.526854,58.9569745 L310.200797,50.2710997 C310.200797,50.2710997 312.380893,52.700951 314.508113,59.3450757 C315.321581,61.9141372 317.090875,66.6557221 317.761987,70.5873565 C318.168721,72.9750229 316.671939,76.286539 316.948518,79.2732312 C317.936882,89.7899313 318.856102,101.28954 316.952585,113.578007 Z" id="Shape" fill="#FFFFFF"></path>
                    <path d="M308.832367,54.1381074 C308.832367,54.1381074 310.160188,48.3007053 313.227621,45.4188948 L302.344534,42.5370844 L299.693095,48.7347129 L308.832367,54.1381074 Z" id="Shape" fill="#A3643B"></path>
                    <path d="M301.118978,46.404163 C301.118978,46.404163 285.887265,46.0586127 284.645978,93.6030033 L281.324808,107.291791 C281.324808,107.291791 308.072676,151.259944 313.448819,115.589161 C313.448819,115.589161 316.354843,76.7376507 310.692249,63.6025761 L313.461274,56.966345 L301.118978,46.404163 Z" id="Shape" fill="#000000" opacity="0.1"></path>
                    <path d="M301.118978,46.404163 C301.118978,46.404163 285.887265,46.0586127 284.645978,93.6030033 L281.324808,107.291791 C281.324808,107.291791 308.072676,151.259944 313.448819,115.589161 C313.448819,115.589161 316.354843,76.7376507 310.692249,63.6025761 L313.461274,56.966345 L301.118978,46.404163 Z" id="Shape" fill="#333333"></path>
                    <path d="M294.888356,116.197004 C294.888356,116.197004 293.883061,131.136871 303.705983,134.278969 C304.322005,134.475652 304.994335,134.37769 305.528541,134.013415 C306.062747,133.649139 306.399246,133.05918 306.440725,132.414147 C306.606854,129.859596 305.793247,124.644053 301.111812,114.076726 L294.888356,116.197004 Z" id="Shape" fill="#000000" opacity="0.1"></path>
                    <path d="M295.854624,115.230252 C295.854624,115.230252 294.856338,130.165862 304.668558,133.312217 C305.285514,133.5089 305.958864,133.410938 306.49388,133.046663 C307.028896,132.682387 307.365905,132.092428 307.407447,131.447395 C307.573828,128.892844 306.758987,123.677301 302.070453,113.109974 L295.854624,115.230252 Z" id="Shape" fill="#A3643B"></path>
                    <circle id="Oval" fill="#FA9221" cx="311.777494" cy="72.0230179" r="1"></circle>
                    <circle id="Oval" fill="#FA9221" cx="311.777494" cy="93.2915601" r="1"></circle>
                    <path d="M326.591517,199.345586 L324.828645,213.103763 C324.828645,213.103763 329.360556,215.033369 330.72013,214.596396 C332.079703,214.159422 334.462075,215.933275 334.462075,215.933275 C334.462075,215.933275 344.590274,219.264658 346.577663,216.27074 C348.565052,213.276822 344.053929,212.376916 340.395138,210.109846 C336.736347,207.842775 335.185518,199.150895 335.185518,199.150895 L326.591517,199.345586 Z" id="Shape" fill="#381E1D"></path>
                    <path d="M297.466827,57.0896459 C297.466827,57.0896459 283.676662,54.317973 285.329322,89.5274022 C285.329322,89.5274022 288.651253,115.311474 294.431413,116.976982 L303.118262,114.760479 L299.684216,90.6377411 L303.130719,78.1610388 C303.130719,78.1610388 305.879617,59.3061494 297.466827,57.0896459 Z" id="Shape" fill="#DAA4A2" opacity="0.1"></path>
                    <path d="M298.431761,57.0896459 C298.431761,57.0896459 284.643638,54.317973 286.296054,89.5274022 C286.296054,89.5274022 289.617493,115.311474 295.396797,116.976982 L304.082359,114.760479 L300.652974,90.6377411 L304.098967,78.1610388 C304.098967,78.1610388 306.843305,59.3061494 298.431761,57.0896459 Z" id="Shape" fill="#000000" opacity="0.1"></path>
                    <path d="M297.473064,57.0896459 C297.473064,57.0896459 283.675892,54.317973 285.329392,89.5274022 C285.329392,89.5274022 288.653011,115.311474 294.436108,116.976982 L303.127371,114.760479 L299.679116,90.6377411 L303.127371,78.1610388 C303.127371,78.1610388 305.885975,59.3061494 297.473064,57.0896459 Z" id="Shape" fill="#333333"></path>
                    <polygon id="Shape" fill="#000000" opacity="0.1" points="295.826087 117.943734 295.826087 116.963171 303.218367 115.043478 303.560102 115.867519"></polygon>
                    <polygon id="Shape" fill="#000000" opacity="0.1" points="295.826087 51.3750908 309.923305 63.8056266 310.327366 63.5269896 296.095461 51.2378517"></polygon>
                    <polygon id="Shape" fill="#000000" opacity="0.1" points="313.270652 114.076726 313.227621 115.043478 316.127877 114.560102 315.97727 114.076726"></polygon>
                    <path d="M301.626598,43.6495102 C303.516358,45.0444569 306.270238,46.4040885 308.935283,46.4040885 C309.998003,46.4048966 311.055102,46.269253 312.072769,46.0014963 C312.417054,45.5977207 312.803682,45.2229321 313.227621,44.8820074 L302.769338,42.5370844 L301.626598,43.6495102 Z" id="Shape" fill="#000000" opacity="0.1"></path>
                    <circle id="Oval" fill="#000000" cx="306.943734" cy="30.4526854" r="11.1176471"></circle>
                    <circle id="Oval" fill="#A3643B" cx="308.877238" cy="35.286445" r="11.1176471"></circle>
                    <path d="M297.802839,29.9693095 C297.802839,29.9693095 293.524734,41.0768511 302.578003,44.4705882 C304.105481,43.6954044 305.16581,42.241881 305.429784,40.5613027 C305.693758,38.8807245 305.129423,37.1765273 303.91199,35.9778242 L297.802839,29.9693095 Z" id="Shape" fill="#000000"></path>
                    <circle id="Oval" fill="#000000" cx="300.176471" cy="22.7186701" r="6.28388747"></circle>
                    <path d="M317.931672,27.8830557 C317.931672,27.8830557 321.793614,28.8085811 315.021705,31.1326782 C312.771557,31.8804326 310.936252,33.5191845 309.954205,35.6574689 C309.342146,36.9621581 308.211596,37.9579526 306.831037,38.4083714 C305.450479,38.8587901 303.943079,38.7236489 302.666815,38.0350408 L300.534225,36.8503683 L296.792839,28.245039 L301.211832,23.1896136 L308.806846,22.2352941 L317.931672,27.8830557 Z" id="Shape" fill="#000000"></path>
                    <path d="M303.901548,20.7744172 C303.902264,17.4431466 301.631414,14.6905295 298.726343,14.5012788 L299.038057,14.5012788 C302.069436,14.5012788 304.526854,17.314671 304.526854,20.7851662 C304.526854,24.2556615 302.069436,27.0690537 299.038057,27.0690537 L298.726343,27.0690537 C301.638669,26.8793528 303.912248,24.1139833 303.901548,20.7744172 Z" id="Shape" fill="#000000"></path>
                    <path d="M301.968044,20.7744172 C301.96876,17.4431466 299.69791,14.6905295 296.792839,14.5012788 L297.104553,14.5012788 C300.135932,14.5012788 302.59335,17.314671 302.59335,20.7851662 C302.59335,24.2556615 300.135932,27.0690537 297.104553,27.0690537 L296.792839,27.0690537 C299.705165,26.8793528 301.978744,24.1139833 301.968044,20.7744172 Z" id="Shape" fill="#000000"></path>
                    <ellipse id="Oval" fill="#A3643B" cx="305.976982" cy="39.6368286" rx="1.45012788" ry="1.93350384"></ellipse>
                    <g id="Group" opacity="0.5" transform="translate(29.969309, 14.501279)" fill="url(#linearGradient-3)">
                        <path d="M101.846134,204.746281 C98.6230493,202.83253 96.9260307,196.447788 96.4256813,194.195579 L92.5854991,144.446412 C92.5854991,144.446412 89.7001505,127.983139 78.7466668,104.529244 C78.6132403,90.5647119 78.1003821,46.4105497 76.853678,41.6596003 L69.4443363,32.63405 C69.8087663,31.9956034 70.2140632,31.3814728 70.6576838,30.795512 L72.5506726,36.1565217 L79.3804428,35.4127495 L75.6945351,28.3510921 C80.7407511,24.2615528 81.7532058,16.9489771 78.0086513,11.63711 C78.8882497,10.4864763 78.8341285,8.87336403 77.8793944,7.78453715 C76.7289942,6.44280619 75.3617953,5.30433319 73.8349029,4.41666977 C68.3203739,-0.908320981 59.6107493,-0.973747408 54.0171832,4.26779967 C48.4236171,9.50934676 47.9048999,18.2223491 52.8369036,24.0932052 C52.452789,24.5275358 51.9564259,24.8471021 51.4025685,25.0166527 C48.8174296,25.7437109 46.7576576,27.5780704 45.4192228,29.0948643 C44.938926,29.6425366 44.7203348,30.3726144 44.8204247,31.0948032 C44.9205147,31.816992 45.3293691,32.4597382 45.9404201,32.8555103 L47.0578673,33.570033 C47.9680608,34.1455005 49.1435065,34.0731402 49.9765725,33.3903577 L52.2906888,31.4766068 C52.3654586,31.4167122 52.473613,31.4244916 52.5390808,31.4944733 C52.6045486,31.564455 52.6053249,31.6731166 52.5408635,31.7440305 C51.9971281,32.3262805 51.8011717,33.1532684 52.0256592,33.9183297 C52.2501467,34.683391 52.8616052,35.2724495 53.6332932,35.46707 L53.6791585,35.46707 L53.6291236,35.492141 L53.6916673,35.5464614 C51.6068778,37.6357092 49.4720535,40.6525829 47.5498776,45.0901452 C44.4602196,48.8507911 41.6374147,56.4974379 41.8375545,71.8325165 C41.6179567,74.6181802 41.4650721,77.6044116 41.3789008,80.7912109 L37.8180805,95.5162291 C37.8180805,95.5162291 10.3405556,146.247343 17.1703258,152.932936 C17.1703258,152.932936 21.2815306,153.668351 27.0730757,155.201859 L10.6365957,177.03032 L10.861753,177.247601 L0.391940415,184.915141 C0.391940415,184.915141 2.32245544,189.824873 3.65672068,190.568645 C4.99098592,191.312417 5.43713086,194.437932 5.43713086,194.437932 C5.43713086,194.437932 10.4823213,204.700317 14.1932465,204.106971 C17.9041717,203.513624 15.2314717,199.347664 14.1932465,194.885031 C13.3843482,191.412701 16.4406495,186.143618 17.8374585,183.970801 L18.2043814,184.321794 C18.2043814,184.321794 37.713841,169.630204 45.1815568,161.415282 C49.2677441,163.232928 53.1663003,165.359782 56.3518586,167.80838 C56.3518586,167.80838 61.9599422,154.119629 67.2219508,131.455469 L67.2678161,131.526503 C71.8752008,138.416843 79.6306175,150.509409 79.9433359,154.261698 C80.3894809,159.618529 82.1698911,179.102853 84.8425911,184.309259 L86.7731061,194.425397 L86.8898544,194.425397 L85.101105,207.838367 C85.101105,207.838367 89.9753427,209.835688 91.4346953,209.384411 C92.8940479,208.933133 95.4541694,210.771671 95.4541694,210.771671 C95.4541694,210.771671 106.34094,214.21893 108.479934,211.122665 C110.618928,208.026399 105.782216,207.077881 101.846134,204.746281 Z" id="Shape"></path>
                    </g>
                    <circle id="Oval" fill="#000000" cx="93.7749361" cy="33.8363171" r="13.5345269"></circle>
                    <path d="M60.4219949,164.348279 L42.5370844,187.52789 L49.7793897,194.317136 C49.7793897,194.317136 74.8524341,175.897333 77.9860437,169.821243 C78.1718603,169.501517 78.2815362,169.144919 78.3069054,168.777997 C78.2860702,164.209723 60.4219949,164.348279 60.4219949,164.348279 Z" id="Shape" fill="#2CA86A"></path>
                    <path d="M93.9899677,140.224389 C93.9899677,140.224389 108.716295,161.516665 109.140459,166.626144 C109.564624,171.735623 111.244809,190.331461 113.769204,195.299242 L115.593523,204.951407 L124.710997,204.951407 L121.06236,157.257376 C121.06236,157.257376 117.837888,138.661539 105.071776,113.109974 L88.9411765,122.053647 L93.9899677,140.224389 Z" id="Shape" fill="#2CA86A"></path>
                    <rect id="Rectangle-path" fill="#FFFFFF" x="92.8081841" y="60.9053708" width="12.5677749" height="55.1048593"></rect>
                    <path d="M104.354646,113.813242 L108.276215,122.777494 C108.276215,122.777494 107.849957,64.0169496 106.387894,58.6116646 L96.9676044,47.370844 L93.7749361,55.620796 L101.021313,64.4430231 C101.021313,64.4430231 105.522592,77.5343393 104.797954,90.3416065 C104.073316,103.148874 104.354646,113.813242 104.354646,113.813242 Z" id="Shape" fill="#000000" opacity="0.1"></path>
                    <polygon id="Shape" fill="#000000" points="104.479142 44.4705882 109.242967 53.448729 102.796583 54.1381074 99.5754476 45.1599667"></polygon>
                    <circle id="Oval" fill="#FDA57D" cx="97.6419437" cy="36.7365729" r="11.601023"></circle>
                    <path d="M97.322424,54.1381074 C98.1409064,51.5445704 99.5796039,49.199209 101.508951,47.3132396 L90.6247995,44.4705882 L87.9744246,50.5858368 L97.322424,54.1381074 Z" id="Shape" fill="#FDA57D"></path>
                    <path d="M92.5477244,49.3086494 C92.5477244,49.3086494 73.5434631,47.8868751 72.3040548,96.7400411 L68.9287327,110.799346 C68.9287327,110.799346 42.9011576,159.227231 49.3708691,165.614791 C49.3708691,165.614791 73.8533152,170.017705 86.5200685,179.815857 C86.5200685,179.815857 96.2287671,155.9584 101.719346,119.317484 C101.719346,119.317484 104.673269,79.4119061 98.9058892,65.9196431 L101.719346,59.1026314 L92.5477244,49.3086494 Z" id="Shape" fill="#3AD29F"></path>
                    <path d="M104.358101,113.813242 L108.276215,122.777494 C108.276215,122.777494 107.850333,64.0169496 106.389558,58.6116646 L96.9647915,47.370844 L93.7749361,55.620796 L101.014928,64.4430231 C101.014928,64.4430231 105.512241,77.5343393 104.788242,90.3416065 C104.064243,103.148874 104.358101,113.813242 104.358101,113.813242 Z" id="Shape" fill="#3AD29F"></path>
                    <path d="M104.358101,113.813242 L108.276215,122.777494 C108.276215,122.777494 107.850333,64.0169496 106.389558,58.6116646 L96.9647915,47.370844 L93.7749361,55.620796 L101.014928,64.4430231 C101.014928,64.4430231 105.512241,77.5343393 104.788242,90.3416065 C104.064243,103.148874 104.358101,113.813242 104.358101,113.813242 Z" id="Shape" fill="#000000" opacity="0.05"></path>
                    <path d="M83.1696779,119.098038 C83.1696779,119.098038 82.1644007,134.040901 91.9887008,137.178902 C92.6044843,137.375939 93.2767951,137.278224 93.8108849,136.914061 C94.3449746,136.549898 94.6811599,135.959983 94.7220579,135.315195 C94.8882194,132.774908 94.074028,127.544907 89.392427,116.976982 L83.1696779,119.098038 Z" id="Shape" fill="#000000" opacity="0.1"></path>
                    <path d="M84.1364298,119.098038 C84.1364298,119.098038 83.1311526,134.040901 92.9554528,137.178902 C93.5712363,137.375939 94.2435471,137.278224 94.7776368,136.914061 C95.3117266,136.549898 95.6479119,135.959983 95.6888098,135.315195 C95.8549714,132.774908 95.0407799,127.544907 90.3591789,116.976982 L84.1364298,119.098038 Z" id="Shape" fill="#FDA57D"></path>
                    <circle id="Oval" fill="#4D8AF0" cx="100.058824" cy="73.9565217" r="1"></circle>
                    <circle id="Oval" fill="#4D8AF0" cx="100.058824" cy="95.2250639" r="1"></circle>
                    <path d="M43.994656,188.516624 L32.8695652,196.80296 C32.8695652,196.80296 34.7244449,201.601436 36.0056936,202.327185 C37.2869422,203.052933 37.7182122,206.109613 37.7182122,206.109613 C37.7182122,206.109613 42.5668592,216.142014 46.1342576,215.561416 C49.7016559,214.980817 47.1307843,210.908089 46.1342576,206.545062 C45.1377308,202.182035 50.2710997,194.920284 50.2710997,194.920284 L43.994656,188.516624 Z" id="Shape" fill="#000000"></path>
                    <path d="M115.921531,204.187031 L114.076726,217.940177 C114.076726,217.940177 118.807212,219.871183 120.224665,219.432701 C121.642118,218.99422 124.125835,220.769227 124.125835,220.769227 C124.125835,220.769227 134.703843,224.095785 136.772902,221.106521 C138.841961,218.117256 134.141093,217.202347 130.320317,214.946696 C126.49954,212.691046 124.88322,203.984655 124.88322,203.984655 L115.921531,204.187031 Z" id="Shape" fill="#000000"></path>
                    <path d="M84.7906819,59.0248048 C84.7906819,59.0248048 70.9984526,56.1636613 72.6425058,92.5098465 C72.6425058,92.5098465 75.9508591,119.125623 81.7455391,120.84399 L90.4395838,118.554235 L86.9895017,93.6568247 L90.4395838,80.7753771 C90.4395838,80.7753771 93.2053185,61.3145598 84.7906819,59.0248048 Z" id="Shape" fill="#000000" opacity="0.1"></path>
                    <path d="M85.7592014,59.0248048 C85.7592014,59.0248048 71.9649876,56.1636613 73.6092773,92.5098465 C73.6092773,92.5098465 76.9181066,119.125623 82.7136204,120.84399 L91.4048661,118.554235 L87.9542876,93.6568247 L91.4048661,80.7795784 C91.4048661,80.7795784 94.1750488,61.3145598 85.7592014,59.0248048 Z" id="Shape" fill="#000000" opacity="0.1"></path>
                    <path d="M85.7599734,59.0248048 C85.7599734,59.0248048 71.9648928,56.1636613 73.6092859,92.5098465 C73.6092859,92.5098465 76.9183231,119.125623 82.7142011,120.84399 L91.4059929,118.554235 L87.9551976,93.6568247 L91.4059929,80.7795784 C91.4059929,80.7795784 94.1722994,61.3145598 85.7599734,59.0248048 Z" id="Shape" fill="#3AD29F"></path>
                    <polygon id="Shape" fill="#000000" opacity="0.1" points="84.1074169 121.810742 84.1074169 120.834997 91.499452 118.910486 91.8414322 119.733349"></polygon>
                    <polygon id="Shape" fill="#000000" opacity="0.1" points="84.1074169 53.3092401 99.1425973 65.7391304 99.5754476 65.4633613 84.4002273 53.1713555"></polygon>
                    <polygon id="Shape" fill="#3AD29F" points="87.9744246 52.8502073 96.2392463 51.2378517 103.442455 61.1957602 99.2747955 63.8056266"></polygon>
                    <path d="M106.516196,30.7716098 L101.2068,36.4990525 L101.2068,40.0091507 C101.207536,42.3049639 100.767813,44.5788215 99.9123261,46.7030208 L96.345332,55.5556641 C95.8591749,56.7660149 94.5062888,57.3520305 93.3125652,56.8693361 L90.3085645,55.6560721 C89.7162173,55.4176529 89.2447855,54.9439283 89.0028867,54.3440441 C88.7609879,53.7441599 88.7694846,53.0698533 89.0264191,52.4764838 L89.8688544,50.5185268 C89.9064131,50.4353521 89.8749546,50.3367555 89.796555,50.2919275 C89.7181554,50.2470995 89.6190843,50.2710607 89.5688652,50.3469964 L87.8552287,52.8320957 C87.3007769,53.6310219 86.3233031,54.0041956 85.3895646,53.7734212 L83.7457885,53.3550543 C83.0159157,53.1709178 82.4368232,52.6063345 82.2245568,51.871937 C82.0122904,51.1375394 82.1987298,50.3436251 82.7143191,49.7863847 C82.7835413,49.719378 82.786301,49.607929 82.7204832,49.5374565 C82.6546653,49.4669839 82.5451938,49.4641742 82.4759715,49.5311809 L80.2938588,51.3636279 C79.510774,52.0212387 78.4007454,52.0904961 77.5446433,51.5351583 L76.4926267,50.8532203 C75.9127619,50.4772332 75.5240285,49.8612697 75.4291289,49.1680655 C75.3342292,48.4748613 75.542711,47.7741588 75.9994938,47.2510814 C77.261092,45.7993483 79.2007477,44.0422074 81.6417552,43.3435347 C84.2019364,42.6113927 85.1142321,38.0177243 85.430659,34.2105856 C85.8103403,29.1765 89.0128662,24.8190116 93.6495393,23.0276388 C97.4630998,21.5884567 102.147862,21.7055995 106.610714,26.8389611 C107.577421,27.9794816 107.536537,29.6805869 106.516196,30.7716098 Z" id="Shape" fill="#000000"></path>
                    <polygon id="Shape" fill="#000000" opacity="0.1" points="102.521806 116.976982 102.475703 117.943734 105.375959 117.457531 105.225079 116.976982"></polygon>
                    <path d="M102.425172,116.976982 L103.442455,116.976982 C103.442455,116.976982 100.610018,144.509978 97.8573685,145.012788 L97.6419437,144.677582 C97.6419437,144.677582 102.149907,122.256479 102.425172,116.976982 Z" id="Shape" fill="#000000" opacity="0.1"></path>
                    <g id="Group" opacity="0.5" transform="translate(200.117647, 0.000000)" fill="url(#linearGradient-4)">
                        <path d="M71.2357432,68.1671262 L72.3980303,65.8656503 L59.9449547,59.5083975 L59.6419299,60.114049 L59.2724886,59.9260882 L57.4875478,63.4639286 C57.188674,61.7931657 56.8358368,60.2351793 56.4663956,58.7899694 C55.8894031,55.4484436 55.221088,52.3157632 54.5818302,49.6508964 C54.556924,49.4211665 54.5320179,49.1914366 54.5071117,48.9742374 C53.4610534,39.6346728 47.8654714,35.2530971 43.6895401,33.2565355 C48.3421255,32.4196332 52.3481962,29.4639123 54.5404325,25.2506336 C56.7326688,21.0373549 56.8644247,16.0405494 54.8973081,11.7162248 C56.3543179,10.5090986 56.7445143,8.48329861 55.1173124,5.20860333 C55.1173124,5.20860333 26.7201491,-9.82826274 21.8759027,11.2149959 C20.9374972,15.3682035 21.17916,19.7032806 22.573275,23.7248331 C23.3621204,26.0674173 24.4804204,28.2842046 25.8940951,30.3076389 C18.5841398,31.5398266 5.5540717,35.1403206 2.23325155,45.3653896 C-1.46531189,56.6764544 0.635106853,78.12905 1.7143734,86.8838475 C1.79348451,87.5232643 2.02255597,88.1345897 2.38268846,88.6673869 C2.56124482,89.1227959 2.83275724,89.5354498 3.17968529,89.87869 L3.17968529,110.688042 L3.55742858,110.583619 L3.55742858,111.06814 C3.55742858,111.06814 3.72762062,111.026371 4.03479648,110.934479 C4.449899,130.50329 7.11485717,161.12002 7.3182574,163.434027 L7.3182574,163.383904 L7.3182574,163.479973 C5.24274481,179.999641 3.16723222,217.779767 3.16723222,217.779767 L3.16723222,217.875836 L3.16723222,217.779767 L7.3182574,217.779767 L7.3182574,233.309508 C7.31818991,234.037389 7.72173227,234.704485 8.36431575,235.038747 C10.3983181,236.091328 14.8897273,238.380273 17.3180771,239.236539 C20.5268195,240.376835 28.0733833,239.236539 28.0733833,239.236539 C28.4511266,237.336046 22.411385,235.627691 22.411385,235.627691 L15.2384135,227.662329 L15.2384135,217.788121 L16.7493866,217.788121 L16.7493866,217.767236 L16.7493866,217.884189 C21.8136373,212.993031 34.8146482,121.13031 35.0678608,119.355124 L32.0542165,210.382464 L32.0542165,210.478533 L32.0542165,210.382464 L34.3082232,210.382464 L34.3082232,225.093531 C34.3071157,225.859937 34.7316324,226.562742 35.4082448,226.914663 C37.4837574,227.979774 41.9004482,230.231127 44.3080428,231.09157 C47.5167853,232.231866 55.0633491,231.09157 55.0633491,231.09157 C55.4410924,229.191077 49.4013507,227.482722 49.4013507,227.482722 L42.2449833,219.509006 L42.2449833,210.382464 L45.0759825,210.382464 C47.4586709,200.775577 51.4436551,129.768154 52.6474524,107.488531 C54.561075,108.80008 56.0222359,108.595411 56.0222359,108.595411 L56.0222359,108.415804 C56.1300696,108.422179 56.2381822,108.422179 56.3460159,108.415804 C56.4841423,108.427427 56.6229919,108.427427 56.7611184,108.415804 C56.7611184,108.415804 56.6697958,101.260762 56.4497915,91.7081754 L60.8955395,87.585568 L60.9536538,87.6148063 L61.0325233,87.4602607 L61.4268707,87.0968698 L61.6302709,87.2012925 L61.9042386,86.6541176 L67.5330287,81.4496912 L67.9190741,81.0904772 L67.4001959,80.0921964 C70.4844076,78.1624652 72.2693485,74.662217 73.2738966,71.7007897 C73.5332205,70.9593589 73.4567501,70.1408314 73.0646477,69.461021 C72.6725453,68.7812105 72.0041689,68.3083544 71.2357432,68.1671262 Z" id="Shape"></path>
                    </g>
                    <polygon id="Shape" fill="#FEC9B1" points="242.654731 203.659662 242.654731 218.485934 234.920716 218.485934 234.920716 202.051151"></polygon>
                    <path d="M242.582428,214.709947 L249.683526,222.326738 C249.683526,222.326738 255.586951,223.944427 255.204715,225.740021 C255.204715,225.740021 247.827557,226.819859 244.693221,225.740021 C242.336098,224.912558 238.004088,222.802529 235.995225,221.793025 C235.334783,221.460265 234.920226,220.796236 234.920717,220.071903 L234.920716,214.618926 L242.582428,214.709947 Z" id="Shape" fill="#381E1D"></path>
                    <polygon id="Shape" fill="#FEC9B1" points="216.55243 211.393677 216.55243 226.219949 208.818414 226.219949 208.818414 209.785166"></polygon>
                    <path d="M216.48283,222.460167 L223.582409,230.07321 C223.582409,230.07321 229.484571,231.685723 229.102417,233.475571 C229.102417,233.475571 221.726837,234.551955 218.593171,233.475571 C216.215322,232.650756 211.829039,230.510362 209.841836,229.516459 C209.207199,229.198557 208.811287,228.560334 208.818512,227.866829 L208.818414,222.352941 L216.48283,222.460167 Z" id="Shape" fill="#381E1D"></path>
                    <path d="M252.322251,102.266539 C252.322251,102.266539 247.475251,195.73738 244.785229,206.599499 L232.388811,206.599499 L235.260648,119.819123 C235.260648,119.819123 222.698945,208.951778 217.856077,213.652174 L204.951407,213.652174 C204.951407,213.652174 206.926569,177.672707 208.8976,161.94366 C208.8976,161.94366 203.525819,101.196564 206.744755,96.6751918 L251.057816,96.6751918 L252.322251,102.266539 Z" id="Shape" fill="#4D8AF0"></path>
                    <g id="Group" opacity="0.1" transform="translate(203.984655, 96.675192)" fill="#000000">
                        <path d="M5.44392878,50.7367176 C4.95720637,54.6807226 4.47048397,59.8919954 4.01239229,65.4922316 C3.7383553,62.342883 -1.21885107,4.47935245 1.89371828,0.0627360287 L2.33544954,0.0627360287 C2.71991934,19.5067225 5.44392878,50.7367176 5.44392878,50.7367176 Z" id="Shape"></path>
                        <path d="M0.118613024,117.575683 C0.118613024,117.575683 2.02869172,82.2762105 3.95922093,66.1948751" id="Shape"></path>
                        <path d="M31.5551544,8.41917506 L28.712532,95.5971606 L27.2932658,110.490694 L30.1358883,23.3127083 C30.1358883,23.3127083 17.7019713,112.853751 12.9083691,117.575683" id="Shape"></path>
                    </g>
                    <path d="M260.75002,77.3560607 C262.56487,74.7556725 264.940604,72.5638584 267.714802,70.9304641 C268.65284,70.3879023 269.842538,70.4686735 270.692491,71.1326261 C271.542445,71.7965786 271.871349,72.9020836 271.515704,73.8995894 C269.957122,78.3143715 266.500212,83.9290897 259.089514,83.0485905 L260.75002,77.3560607 Z" id="Shape" fill="#FEC9B1"></path>
                    <path d="M252.330345,53.1713555 C252.330345,53.1713555 252.488194,53.5225943 252.735086,54.1672208 C254.058588,57.5143199 258.045283,68.7746225 256.717734,79.9068263 L261.63938,74.7043599 L265.856777,82.9688021 L252.322251,95.7084399 L252.330345,53.1713555 Z" id="Shape" fill="#000000" opacity="0.1"></path>
                    <path d="M250.388747,44.4705882 C250.388747,44.4705882 251.382296,44.8881406 251.62553,45.5603999 C252.973623,48.9425741 257.900141,68.4923762 256.547925,79.7412372 L261.561018,74.4842528 L265.856777,82.8353002 L252.070771,95.7084399 L250.388747,44.4705882 Z" id="Shape" fill="#2CA86A"></path>
                    <polygon id="Shape" fill="#333333" points="242.391542 38.6700767 248.455243 98.6086957 218.485934 98.6086957 226.15594 39.7518815"></polygon>
                    <path d="M238.787724,35.769821 C238.787724,35.769821 251.550649,37.7713442 253.124877,52.3179799 C254.699106,66.8646156 255.222506,109.231587 255.222506,109.231587 C255.222506,109.231587 244.05394,110.868817 243.860685,74.8665214 C243.667429,38.8642262 238.787724,35.769821 238.787724,35.769821 Z" id="Shape" fill="#000000" opacity="0.1"></path>
                    <path d="M238.787724,35.769821 C238.787724,35.769821 251.553776,37.7713442 253.128391,52.3179799 C254.703005,66.8646156 255.222506,109.231587 255.222506,109.231587 C255.222506,109.231587 244.031068,110.868817 243.853873,74.8665214 C243.676679,38.8642262 238.787724,35.769821 238.787724,35.769821 Z" id="Shape" fill="#000000" opacity="0.1"></path>
                    <path d="M238.787724,35.769821 C238.787724,35.769821 251.550649,37.7713442 253.124877,52.3179799 C254.699106,66.8646156 255.222506,109.231587 255.222506,109.231587 C255.222506,109.231587 244.033809,110.868817 243.856658,74.8665214 C243.679507,38.8642262 238.787724,35.769821 238.787724,35.769821 Z" id="Shape" fill="#2CA86A"></path>
                    <rect id="Rectangle-path" fill="#F5F5F5" transform="translate(259.089514, 76.373402) rotate(-153.090000) translate(-259.089514, -76.373402) " x="252.322251" y="64.7723785" width="13.5345269" height="23.202046"></rect>
                    <rect id="Rectangle-path" fill="#E0E0E0" transform="translate(260.056266, 75.406650) rotate(-153.090000) translate(-260.056266, -75.406650) " x="253.289003" y="63.8056266" width="13.5345269" height="23.202046"></rect>
                    <path d="M243.305918,79.0995382 C245.340513,76.0056273 248.098907,73.4826184 251.329574,71.7605763 C252.04323,71.3924598 252.901724,71.490238 253.518995,72.0099408 C254.136266,72.5296435 254.396081,73.3734102 254.181603,74.1618035 C252.910366,78.8120674 249.641469,85.9988388 241.68798,84.9757807 L243.305918,79.0995382 Z" id="Shape" fill="#FEC9B1"></path>
                    <path d="M231.57237,25.1355499 C231.57237,25.1355499 230.462774,31.248763 226.219949,33.4190365 L227.495347,40.7913396 L236.197815,48.3375959 L240.721228,38.8944212 L239.335295,33.9491796 L231.57237,25.1355499 Z" id="Shape" fill="#A3643B"></path>
                    <path d="M204.951407,86.9589315 L204.951407,111.176471 C204.951407,111.176471 232.444095,104.258372 230.998646,73.3072162 C229.553197,42.3560608 228.499311,33.8363171 228.499311,33.8363171 L208.208874,56.9176109 L204.951407,86.9589315 Z" id="Shape" fill="#000000" opacity="0.1"></path>
                    <path d="M204.951407,86.9547387 L204.951407,111.176471 C204.951407,111.176471 232.444095,104.258372 230.998646,73.3072162 C229.553197,42.3560608 228.499311,33.8363171 228.499311,33.8363171 L208.204708,56.9218037 L204.951407,86.9547387 Z" id="Shape" fill="#2CA86A"></path>
                    <path d="M239.821753,34.6722456 L240.721228,37.7033248 C236.092699,37.4554006 231.831857,35.3087172 229.120205,31.8585346 C230.441452,30.1308427 231.358696,28.1710055 231.814239,26.1023018 L239.821753,34.6722456 Z" id="Shape" fill="#000000" opacity="0.1"></path>
                    <circle id="Oval" fill="#A3643B" cx="240.721228" cy="22.2352941" r="14.5012788"></circle>
                    <path d="M204.073689,49.0349142 C200.429414,59.994042 202.618495,80.9917806 203.654325,88.9281296 C203.873318,90.6926538 205.460242,91.9727841 207.25247,91.8306606 L246.521739,88.8327608 L246.521739,76.2067509 L218.659178,75.6677094 L222.479586,51.3735249 C222.479586,51.3735249 208.640566,35.3474072 204.073689,49.0349142 Z" id="Shape" fill="#000000" opacity="0.1"></path>
                    <path d="M231.796947,33.8363171 C231.796947,33.8363171 208.627425,35.0217274 204.075744,48.7958613 C200.505716,59.5897735 202.531948,80.0673191 203.572332,88.423627 C203.832612,90.4911826 205.679438,91.9906069 207.76743,91.8295947 L246.521739,88.849373 L246.521739,76.1604739 L218.653707,75.6220305 L222.479636,51.15416 L231.796947,33.8363171 Z" id="Shape" fill="#2CA86A"></path>
                    <path d="M255.163987,10.7783331 C255.163987,10.7783331 227.60155,-3.60117425 222.898135,16.5192647 C221.987377,20.4893124 222.221255,24.6332155 223.573064,28.4777965 C225.00729,32.6047444 227.909487,37.8857324 233.697008,40.6035806 L234.844388,27.825513 L235.321057,27.825513 C237.271023,27.825513 238.851782,26.2586205 238.851782,24.3257608 L238.851782,17.30535 C238.851782,17.30535 261.166641,22.6992332 255.163987,10.7783331 Z" id="Shape" fill="#381E1D"></path>
                    <ellipse id="Oval" fill="#A3643B" cx="234.43734" cy="28.0358056" rx="1.45012788" ry="2.90025575"></ellipse>
                    <circle id="Oval" fill="#F5F5F5" transform="translate(262.473146, 71.056266) rotate(-63.090000) translate(-262.473146, -71.056266) " cx="262.473146" cy="71.056266" r="1.45012788"></circle>
                    <g id="Group" opacity="0.5" transform="translate(139.212276, 22.235294)" fill="url(#linearGradient-5)">
                        <path d="M44.1306658,99.499659 C44.1058733,94.8294118 41.3001877,90.3680307 39.2919945,87.7780904 L40.2630344,86.441347 L37.4532167,69.4062234 C37.4532167,69.4062234 37.3085938,67.77289 37.2879333,64.9072464 C37.8389443,60.8160439 38.0641777,56.6867242 37.9614632,52.5590793 C38.1598032,50.7085251 38.4159925,48.7451833 38.7382951,46.6899403 C39.804373,39.9435635 37.5275943,35.7369991 35.0194188,33.226428 C33.5414972,31.6953298 31.7405383,30.5215293 29.7510106,29.7926684 L29.7014256,29.7926684 C29.8584448,29.2537937 30.0154641,28.8193521 30.155955,28.4684569 C30.2303325,28.301364 30.2923138,28.184399 30.3295025,28.1092072 C33.8000047,27.1613384 36.6230865,24.6108205 37.9433192,21.230492 C39.2635519,17.8501634 38.9255544,14.0378627 37.0317441,10.9487639 C38.7258989,9.69556692 36.5689506,9.16086957 36.5689506,9.16086957 C35.5973909,4.90273802 32.3225433,1.56920752 28.1173011,0.557772674 C23.912059,-0.453662169 19.5031303,1.03178474 16.738842,4.39137902 C13.9745537,7.7509733 13.3326025,12.4041433 15.0821096,16.4001705 C14.8424486,19.858994 15.6316768,24.2827792 20.5488578,26.3004263 L20.7430658,26.4424552 C19.3149122,27.6658885 17.6622736,28.592811 15.8796019,29.1702472 C12.8177271,29.5211424 8.68977436,32.0567775 5.45021987,41.5643649 C2.18587287,51.1471441 1.45862594,65.2038363 1.46275802,75.8560102 C1.46275802,83.3334186 1.80158898,89.2025575 1.90902318,90.8108269 L1.51647513,90.8108269 C-3.1279882,104.754731 7.38403556,141.949616 7.38403556,141.949616 L5.83863584,187.950298 L6.61546778,187.950298 L5.24361563,198.339301 C5.24361563,198.339301 9.85502228,200.248338 11.2351386,199.813896 C12.6152549,199.379454 15.0366566,201.138107 15.0366566,201.138107 C15.0366566,201.138107 25.3379441,204.429838 27.3585335,201.472293 C28.1271013,200.348593 27.9370254,199.517306 27.2056464,198.802984 C30.3708234,199.579966 35.7838545,200.549105 37.1887633,198.489685 C39.2134849,195.53214 34.6227386,194.629838 30.8997302,192.399147 C28.4659323,190.941262 26.9494571,186.763939 26.1932856,184.044501 L26.9742496,184.044501 L36.5234976,136.059591 L36.5234976,104.85081 C37.0193478,105.098664 37.4876508,105.31867 37.9284065,105.510827 L37.9284065,202.220034 L42.143133,202.220034 L42.143133,106.84757 C42.7785039,106.943968 43.422074,106.736056 43.884405,106.285034 C44.3467361,105.834013 44.5752023,105.19122 44.5025534,104.545865 C44.4694967,104.232566 44.4240438,103.927621 44.3703267,103.631032 C45.7132543,104.303581 46.7834642,106.555158 47.3371636,108.226087 C48.1635806,110.782609 50.9899266,105.527536 50.9899266,105.527536 C48.7420724,101.007673 46.2917461,99.5623188 44.1306658,99.499659 Z" id="Shape"></path>
                    </g>
                    <rect id="Rectangle-path" fill="#381E1D" x="176.915601" y="124.710997" width="3.86700767" height="95.7084399"></rect>
                    <path d="M176.915601,125.240775 C176.915601,125.240775 183.810135,115.924057 189.483376,128.000298 C189.483376,128.000298 186.78085,133.377375 185.96803,130.759821 C185.155209,128.142267 183.215992,124.233682 180.94257,126.553988" id="Shape" fill="#381E1D"></path>
                    <path d="M176.031437,108.276215 C176.031437,108.276215 186.400296,118.723856 181.310281,127.548979 C180.991807,128.103219 180.441299,128.476292 179.818181,128.56016 C179.195063,128.644028 178.568947,128.429321 178.121155,127.978217 C176.358742,126.196881 173.576649,121.771442 170.148338,110.808716 L176.031437,108.276215 Z" id="Shape" fill="#FDA57D"></path>
                    <path d="M169.434341,55.1048593 C169.434341,55.1048593 180.376904,58.3743322 178.274048,71.1818473 C176.171191,83.9893625 177.010621,92.9824926 177.010621,92.9824926 L179.815857,109.334017 L174.762149,116.01023 C174.762149,116.01023 166.068058,107.574491 163.121489,98.9765262 C160.17492,90.3785613 160.453303,56.4650599 169.434341,55.1048593 Z" id="Shape" fill="#000000" opacity="0.1"></path>
                    <path d="M168.458617,55.1048593 C168.458617,55.1048593 179.397099,58.3732161 177.295027,71.1763592 C175.192955,83.9795023 176.032071,92.9695625 176.032071,92.9695625 L178.849105,109.315504 L173.788719,116.01023 C173.788719,116.01023 165.093589,107.544105 162.152401,98.9615499 C159.211212,90.3789947 159.485209,56.4687538 168.458617,55.1048593 Z" id="Shape" fill="#2CA86A"></path>
                    <path d="M156.369005,201.250747 L154.680307,214.296617 C154.680307,214.296617 159.012887,216.126449 160.322736,215.714737 C161.632586,215.303025 163.897618,216.983143 163.897618,216.983143 C163.897618,216.983143 173.570355,220.139603 175.48072,217.303363 C177.391085,214.467124 173.062536,213.597954 169.56826,211.481171 C166.073984,209.364388 164.590831,201.084399 164.590831,201.084399 L156.369005,201.250747 Z" id="Shape" fill="#000000"></path>
                    <path d="M175.948849,108.276215 L175.948849,156.758815 L166.419529,203.017903 L156.334189,203.017903 L157.873935,158.660503 C157.873935,158.660503 147.365165,122.791738 151.988682,109.375432 L175.948849,108.276215 Z" id="Shape" fill="#333333"></path>
                    <path d="M167.542864,115.043478 C167.542864,115.043478 181.699972,117.118141 182.705894,127.260938 C182.768069,127.896344 182.544152,128.525991 182.098859,128.967901 C181.653566,129.409811 181.036528,129.614729 180.42608,129.52343 C178.018464,129.164847 173.289809,127.312164 164.347826,120.627139 L167.542864,115.043478 Z" id="Shape" fill="#FDA57D"></path>
                    <path d="M170.148338,52.2821069 C170.148338,52.2821069 167.856374,56.1572728 168.798672,62.8388747 C168.798672,62.8388747 155.252633,61.7048788 155.655887,53.9545469 C155.655887,53.9545469 162.260198,52.351452 163.811491,46.4040921 L170.148338,52.2821069 Z" id="Shape" fill="#FDA57D"></path>
                    <path d="M146.701486,204.151003 L145.012788,217.196873 C145.012788,217.196873 149.345367,219.026705 150.655217,218.614992 C151.965067,218.20328 154.230099,219.883399 154.230099,219.883399 C154.230099,219.883399 163.902835,223.039859 165.813201,220.203619 C167.723566,217.36738 163.395017,216.49821 159.900741,214.381427 C156.406465,212.264644 154.923312,203.984655 154.923312,203.984655 L146.701486,204.151003 Z" id="Shape" fill="#000000"></path>
                    <path d="M166.28133,112.143223 L166.28133,160.627962 L156.756872,206.88491 L146.663853,206.88491 L148.202814,162.525554 C148.202814,162.525554 137.699405,126.655206 142.320563,113.238309 L166.28133,112.143223 Z" id="Shape" fill="#000000" opacity="0.1"></path>
                    <path d="M165.314578,112.143223 L165.314578,160.627962 L155.796013,206.88491 L145.696162,206.88491 L147.234862,162.525554 C147.234862,162.525554 136.733239,126.655206 141.353611,113.238309 L165.314578,112.143223 Z" id="Shape" fill="#333333"></path>
                    <path d="M159.632365,55.03954 C159.632365,55.03954 150.899257,49.4608248 145.081416,66.059891 C139.263575,82.6589571 141.616098,113.273351 141.616098,113.273351 C141.616098,113.273351 166.423372,121.1658 175.296108,110.145449 L175.296108,93.6793081 C175.296108,93.6793081 180.009617,74.9035876 173.354007,58.5745263 C173.354007,58.5745263 167.531935,60.88826 159.632365,55.03954 Z" id="Shape" fill="#000000" opacity="0.1"></path>
                    <path d="M159.632365,55.03954 C159.632365,55.03954 150.899257,49.4608248 145.081416,66.059891 C139.263575,82.6589571 141.616098,113.273351 141.616098,113.273351 C141.616098,113.273351 166.423372,121.1658 175.296108,110.145449 L175.296108,93.683462 C175.296108,93.683462 180.009617,74.9077416 173.354007,58.5786803 C173.349776,58.5745263 167.531935,60.88826 159.632365,55.03954 Z" id="Shape" fill="#000000" opacity="0.1"></path>
                    <path d="M159.632365,55.03954 C159.632365,55.03954 150.899257,49.4608248 145.081416,66.059891 C139.263575,82.6589571 141.616098,113.273351 141.616098,113.273351 C141.616098,113.273351 166.423372,121.1658 175.296108,110.145449 L175.296108,93.6793081 C175.296108,93.6793081 180.009617,74.9035876 173.354007,58.5745263 C173.349776,58.5745263 167.531935,60.88826 159.632365,55.03954 Z" id="Shape" fill="#2CA86A"></path>
                    <path d="M150.903635,63.8056266 C150.903635,63.8056266 161.612377,67.045373 159.568019,79.7974784 C157.523661,92.5495837 158.32965,101.482678 158.32965,101.482678 L172.081841,115.169882 L167.132564,121.810742 C167.132564,121.810742 147.608314,115.980853 144.720186,107.44497 C141.832058,98.9090859 142.104919,65.1586241 150.903635,63.8056266 Z" id="Shape" fill="#000000" opacity="0.1"></path>
                    <path d="M149.940436,63.8056266 C149.940436,63.8056266 160.66417,67.0534166 158.603367,79.7963377 C156.542563,92.5392589 157.365205,101.47999 157.365205,101.47999 L171.11509,115.170356 L166.166642,121.810742 C166.166642,121.810742 146.645668,115.981269 143.753827,107.441857 C140.861987,98.9024448 141.143196,65.162665 149.940436,63.8056266 Z" id="Shape" fill="#000000" opacity="0.1"></path>
                    <path d="M150.890337,63.8056266 C150.890337,63.8056266 161.614103,67.0577858 159.553293,79.7974784 C157.492483,92.5371709 158.315128,101.482678 158.315128,101.482678 L172.081841,115.169882 L167.13338,121.810742 C167.13338,121.810742 147.612348,115.980853 144.724696,107.44497 C141.837044,98.9090859 142.093071,65.1586241 150.890337,63.8056266 Z" id="Shape" fill="#2CA86A"></path>
                    <path d="M163.655542,46.4040921 L170.148338,52.2398949 C170.042872,52.4241181 169.947185,52.6133523 169.861643,52.8068709 C168.919593,53.0486299 167.948705,53.1711612 166.973614,53.1713555 C164.494546,53.1713555 162.335903,51.9564069 160.480818,50.6523622 C161.775161,49.5346095 162.892428,48.4290063 163.655542,46.4040921 Z" id="Shape" fill="#000000" opacity="0.1"></path>
                    <circle id="Oval" fill="#E0E0E0" cx="164.831202" cy="37.2199488" r="11.1176471"></circle>
                    <circle id="Oval" fill="#FDA57D" cx="166.764706" cy="42.0537084" r="11.1176471"></circle>
                    <path d="M155.691415,37.7033248 C155.691415,37.7033248 151.411732,48.792538 160.461927,52.2046036 C161.991045,51.4315848 163.052992,49.9788194 163.317234,48.2984829 C163.581477,46.6181464 163.015936,44.9142338 161.796637,43.7170904 L155.691415,37.7033248 Z" id="Shape" fill="#E0E0E0"></path>
                    <path d="M174.898596,34.6392576 C174.898596,34.6392576 178.595193,35.5661817 172.118077,37.8918424 C169.967121,38.6428874 168.213573,40.2832907 167.275373,42.4220791 C166.68898,43.7279239 165.606465,44.7245153 164.28473,45.1753411 C162.962995,45.6261669 161.519871,45.4910365 160.297843,44.8020191 L158.247765,43.6371011 L154.680307,35.019213 L158.905566,29.9587089 L166.169622,29.0025575 L174.898596,34.6392576 Z" id="Shape" fill="#E0E0E0"></path>
                    <ellipse id="Oval" fill="#FDA57D" cx="163.86445" cy="46.4040921" rx="1.45012788" ry="1.93350384"></ellipse>
                    <path d="M159.514066,55.1048593 C159.514066,55.1048593 166.704876,66.7058824 170.793767,66.7058824 C174.882659,66.7058824 167.929529,55.8257801 167.929529,55.8257801 L167.764362,58.8337596 L159.514066,55.1048593 Z" id="Shape" fill="#333333"></path>
                    <g id="Group" opacity="0.5" transform="translate(8.700767, 99.575448)" fill="url(#linearGradient-6)">
                        <path d="M193.706015,59.6703622 C168.980691,59.6703622 143.376041,57.1554551 117.154611,52.1004918 C46.6418046,38.5367596 8.5390509,12.2308315 6.45533911,11.1033148 L0.170864366,0.586811654 C0.75847109,0.905366552 50.8300653,27.6933185 119.630061,40.8714317 C182.770696,52.9681348 275.154141,55.7471071 356.714788,0.293405827 L354.922796,12.955963 C317.415984,38.4696954 282.826368,51.2370404 235.972025,57.0925824 C221.949667,58.8274291 207.834051,59.6883325 193.706015,59.6703622 Z" id="Shape"></path>
                    </g>
                    <path d="M202.339976,157.580436 C177.601358,157.580436 151.982941,155.083397 125.747413,150.064348 C55.1966936,136.596984 17.0734531,110.477955 14.988621,109.358449 L8.70076726,98.9000169 C9.28868993,99.2163085 59.3872062,125.813937 128.224194,138.898422 C191.394608,150.905018 283.827725,153.664246 365.432225,98.6086957 L363.639269,111.181288 C326.112291,136.513749 291.504077,149.190384 244.624542,155.004324 C230.596371,156.732238 216.474562,157.592584 202.339976,157.580436 Z" id="Shape" fill="#2CA86A"></path>
                    <g id="Group" opacity="0.5" transform="translate(0.000000, 83.140665)" fill="url(#linearGradient-7)">
                        <path d="M21.7304928,121.627323 L19.7196489,121.627323 L19.7196489,16.2064058 C23.1018048,14.2574267 24.7507471,10.2840904 23.739961,6.51895188 C22.729175,2.75381336 19.3106997,0.135708064 15.4053225,0.135708064 C11.4999452,0.135708064 8.08146989,2.75381336 7.07068388,6.51895188 C6.05989786,10.2840904 7.70884015,14.2574267 11.0909961,16.2064058 L11.0909961,121.627323 L9.08015207,121.627323 C4.06532256,121.627323 -2.84217094e-14,125.684923 -2.84217094e-14,130.690226 L-2.84217094e-14,137.00338 L30.8148255,137.00338 L30.8148255,130.690226 C30.8148257,128.285872 29.8575957,125.980054 28.1538326,124.28031 C26.4500695,122.580566 24.1394232,121.626216 21.7304928,121.627323 Z" id="Shape"></path>
                    </g>
                    <rect id="Rectangle-path" fill="#E0E0E0" x="11.601023" y="89.9079284" width="7.73401535" height="116.976982"></rect>
                    <path d="M9.01453762,202.051151 L22.8797954,202.051151 C27.3291482,202.051151 30.9360614,205.541712 30.9360614,209.847537 L30.9360614,216.55243 L0.966751918,216.55243 L0.966751918,209.843434 C0.969088608,205.542414 4.57015189,202.055678 9.01453762,202.051151 Z" id="Shape" fill="#E0E0E0"></path>
                    <circle id="Oval" fill="#000000" opacity="0.1" cx="14.9846547" cy="95.2250639" r="8.2173913"></circle>
                    <circle id="Oval" fill="#E0E0E0" cx="14.9846547" cy="94.258312" r="8.2173913"></circle>
                    <path d="M11.601023,203.017903 C11.601023,203.017903 16.5720526,205.193095 19.3350384,203.017903" id="Shape" fill="#000000" opacity="0.1"></path>
                    <rect id="Rectangle-path" fill="#E0E0E0" x="358.664962" y="89.9079284" width="7.73401535" height="116.976982"></rect>
                    <path d="M356.078476,202.055253 L369.943734,202.055253 C374.393087,202.055253 378,205.544827 378,209.849434 L378,216.55243 L348.030691,216.55243 L348.030691,209.845332 C348.030691,205.540725 351.637604,202.051151 356.086957,202.051151 L356.078476,202.055253 Z" id="Shape" fill="#E0E0E0"></path>
                    <circle id="Oval" fill="#000000" opacity="0.1" cx="363.015345" cy="95.2250639" r="8.2173913"></circle>
                    <circle id="Oval" fill="#E0E0E0" cx="363.015345" cy="94.258312" r="8.2173913"></circle>
                    <path d="M358.664962,203.017903 C358.664962,203.017903 363.635991,205.193095 366.398977,203.017903" id="Shape" fill="#000000" opacity="0.1"></path>
                </g>
            </g>
        </g>
    </g>
</svg>